<?xml version="1.0" encoding="UTF-8"?>
<svg id="Layer_1" xmlns="http://www.w3.org/2000/svg" xmlns:xlink="http://www.w3.org/1999/xlink" version="1.1" viewBox="0 0 512 512">
  <!-- Generator: Adobe Illustrator 30.1.0, SVG Export Plug-In . SVG Version: 2.1.1 Build 136)  -->
  <defs>
    <style>
      .st0 {
        fill: none;
      }

      .st1 {
        clip-path: url(#clippath-1);
      }

      .st2 {
        fill: #fff;
      }

      .st3 {
        fill: #f8cd0e;
      }

      .st4 {
        fill: #dfd8d3;
        stroke: #1a1a1a;
        stroke-width: 8px;
      }

      .st5 {
        clip-path: url(#clippath);
      }
    </style>
    <clipPath id="clippath">
      <rect class="st0" x="121.7" y="121.9" width="241.8" height="234.4" rx="81.5" ry="81.5"/>
    </clipPath>
    <clipPath id="clippath-1">
      <rect class="st0" x="121.7" y="121.9" width="241.8" height="234.4"/>
    </clipPath>
  </defs>
  <rect class="st3" width="512" height="512"/>
  <g>
    <polygon class="st4" points="256 36 452 146 452 366 256 476 60 366 60 146 256 36"/>
    <g class="st5">
      <g class="st1">
        <g>
          <path class="st2" d="M247.5,201.3v-33.5c0-6.6-2-13.1-5.7-18.6-3.7-5.5-9-9.8-15.2-12.4-6.2-2.5-13-3.2-19.5-1.9-6.6,1.3-12.6,4.5-17.3,9.2-4.7,4.7-7.9,10.7-9.3,17.2-1.3,6.5-.6,13.2,1.9,19.4,2.6,6.1,6.9,11.4,12.4,15,5.6,3.7,12.1,5.7,18.8,5.7h33.8,0Z"/>
          <path class="st2" d="M316.3,191.7c4-3.9,6.9-8.7,8.5-14s1.9-10.9.9-16.3c-1.1-5.4-3.5-10.5-7-14.8-3.5-4.3-8.1-7.6-13.2-9.7-5.1-2.1-10.7-2.9-16.3-2.4s-10.9,2.4-15.5,5.5c-4.6,3.1-8.4,7.2-11,12.1-2.6,4.9-4,10.3-4,15.9v33.5h33.8c4.4,0,8.8-.9,12.9-2.5,4.1-1.7,7.8-4.1,10.9-7.3h0Z"/>
          <path class="st3" d="M156.4,278.2c0,31.3,19.6,56.1,47.7,63.3v-125c-27.6,9.5-47.7,34.3-47.7,61.6h0Z"/>
          <path class="st3" d="M284.1,343.9c10-.8,19.7-3.7,28.5-8.3,8.8-4.7,16.6-11,22.9-18.8-6.9,1.8-14.1,1.8-21,0-6.9-1.8-13.1-5.4-18.2-10.4l7.9-7.9c5.5,5.4,13,8.5,20.7,8.6,7.8,0,15.3-2.9,20.9-8.2,2.5-6.6,3.8-13.6,3.8-20.6.2-8.6-1.3-17.2-4.5-25.2-3.2-8-8-15.3-14.1-21.4-6.1-6.1-13.4-11-21.4-14.2-8-3.3-16.6-4.9-25.3-4.7h-25.6v131.2h25.3ZM300.5,252.4c2.3,0,4.6.7,6.6,2,1.9,1.3,3.5,3.1,4.4,5.3.9,2.1,1.1,4.5.7,6.8-.5,2.3-1.6,4.4-3.2,6s-3.8,2.8-6.1,3.2c-2.3.4-4.7.2-6.8-.7-2.2-.9-4-2.4-5.3-4.3-1.3-1.9-2-4.2-2-6.5,0-1.5.3-3.1.9-4.5s1.5-2.7,2.6-3.8c1.1-1.1,2.4-1.9,3.8-2.5,1.4-.6,3-.9,4.5-.9h0Z"/>
          <path class="st3" d="M221.9,212.7c-2.2.2-4.4.5-6.5.9v130c2,.2,4.1.3,6.1.3h25.9v-131.2h-25.5s0,0,0,0Z"/>
          <path d="M300.5,275.8c2.3,0,4.6-.7,6.6-2,1.9-1.3,3.5-3.1,4.4-5.3.9-2.1,1.1-4.5.7-6.8-.5-2.3-1.6-4.4-3.2-6s-3.8-2.8-6.1-3.2c-2.3-.5-4.7-.2-6.8.7-2.2.9-4,2.4-5.3,4.3-1.3,1.9-2,4.2-2,6.5s1.2,6.1,3.5,8.3c2.2,2.2,5.2,3.4,8.4,3.4h0Z"/>
          <path d="M313.9,207.2c3.8-2,7.3-4.6,10.3-7.6,4.5-4.5,8.1-10,10.3-16,2.2-6,3.2-12.4,2.7-18.8-.5-6.4-2.3-12.6-5.4-18.2s-7.3-10.5-12.5-14.4-11.1-6.5-17.4-7.9c-6.3-1.4-12.8-1.4-19.1,0s-12.2,4-17.4,7.8-9.5,8.7-12.6,14.3c-3.4-6.2-8.3-11.6-14.1-15.6-5.9-4-12.7-6.6-19.7-7.5-7.1-.9-14.3-.1-21,2.3-6.7,2.4-12.8,6.4-17.6,11.5-4.9,5.2-8.4,11.4-10.4,18.3-2,6.8-2.3,14-.9,21s4.4,13.5,8.8,19,10.1,10,16.6,12.9c-27,11.5-46.8,36.5-49.1,64.3h-21.2v11.2h21.1c1.1,19.3,9.6,37.5,23.7,50.7,14.2,13.3,33,20.6,52.5,20.5h63.2c42-3.3,76.3-37.7,76.3-76.9.2-15.1-4.2-30-12.6-42.6-8.4-12.6-20.4-22.5-34.5-28.3h0ZM204.1,341.6c-28.1-7.5-47.7-32.1-47.7-63.3s20.2-52.2,47.7-61.6v125ZM247.5,343.9h-25.9c-2.1,0-4.1,0-6.1-.3v-130c2.2-.4,4.3-.7,6.5-.9h25.5v131.2c0,0,0,0,0,0ZM247.5,201.4h-33.8c-8.9,0-17.5-3.5-23.8-9.8-4-3.9-6.9-8.7-8.5-14-1.6-5.3-1.9-10.9-.9-16.3,1.1-5.4,3.5-10.5,7-14.8,3.5-4.3,8.1-7.6,13.2-9.7,5.1-2.1,10.7-2.9,16.3-2.4,5.5.5,10.9,2.4,15.5,5.5,4.6,3.1,8.4,7.2,11,12.1,2.6,4.9,4,10.3,4,15.9v33.5ZM258.7,167.9c0-6.6,2-13.1,5.7-18.6,3.7-5.5,9-9.8,15.2-12.4,6.2-2.5,13-3.2,19.5-1.9,6.6,1.3,12.6,4.5,17.3,9.2,4.7,4.7,7.9,10.7,9.2,17.2,1.3,6.5.6,13.2-1.9,19.4-2.6,6.1-6.9,11.4-12.4,15-5.6,3.7-12.1,5.6-18.8,5.6h-33.8v-33.5h0ZM304.2,298.4l-7.9,7.9c5,5,11.3,8.6,18.2,10.4s14.1,1.9,21,0c-6.3,7.7-14.1,14.1-22.9,18.7-8.8,4.6-18.5,7.4-28.5,8.3h-25.3v-131.1h25.6c8.7-.2,17.3,1.4,25.4,4.7,8.1,3.2,15.4,8.1,21.5,14.2,6.1,6.1,10.9,13.4,14.1,21.4,3.2,8,4.7,16.6,4.5,25.2,0,7-1.3,14-3.8,20.6-5.6,5.4-13.2,8.4-21,8.3-7.8,0-15.3-3.2-20.9-8.7h0Z"/>
        </g>
      </g>
    </g>
  </g>
</svg>